<svg width="9" height="16" viewBox="0 0 9 16" fill="none" xmlns="http://www.w3.org/2000/svg">
<g clip-path="url(#clip0_352_9181)">
<path fill-rule="evenodd" clip-rule="evenodd" d="M0.29988 15.7663C0.631243 16.0783 1.16715 16.0783 1.4977 15.7663L8.50379 9.15512C8.66062 9.00939 8.78549 8.83399 8.87083 8.6396C8.95616 8.4452 9.00016 8.23586 9.00016 8.02432C9.00016 7.81277 8.95616 7.60344 8.87083 7.40904C8.78549 7.21464 8.66062 7.03925 8.50379 6.89352L1.44697 0.233519C1.28681 0.0846768 1.07472 0.00101771 0.85377 -0.000468146C0.632817 -0.001954 0.419569 0.0788448 0.257334 0.225519C0.176966 0.297951 0.11266 0.385744 0.0684001 0.483462C0.02414 0.58118 0.000867495 0.686742 2.37929e-05 0.793611C-0.000819909 0.900479 0.0207831 1.00638 0.0634952 1.10475C0.106207 1.20313 0.169119 1.29188 0.248334 1.36552L6.70706 7.45912C6.78554 7.53199 6.84803 7.61971 6.89074 7.71695C6.93344 7.81418 6.95546 7.9189 6.95546 8.02472C6.95546 8.13054 6.93344 8.23526 6.89074 8.33249C6.84803 8.42973 6.78554 8.51745 6.70706 8.59032L0.29988 14.6359C0.221424 14.7087 0.158946 14.7964 0.116252 14.8935C0.073557 14.9907 0.0515391 15.0954 0.0515391 15.2011C0.0515391 15.3069 0.073557 15.4115 0.116252 15.5087C0.158946 15.6059 0.221424 15.6935 0.29988 15.7663Z" fill="#182045"/>
</g>
<defs>
<clipPath id="clip0_352_9181">
<rect width="9" height="16" fill="white"/>
</clipPath>
</defs>
</svg>
