<svg width="24" height="24" viewBox="0 0 24 24" fill="none" xmlns="http://www.w3.org/2000/svg">
<g clip-path="url(#clip0_480_97)">
<path d="M0.461914 21.8215C0.461914 22.6224 1.11366 23.2742 1.91481 23.2742H11.7329C12.534 23.2742 13.1858 22.6224 13.1858 21.8215C13.1858 21.0452 12.5727 20.4148 11.8062 20.3758C11.5985 19.4679 10.7879 18.7868 9.81776 18.7868H3.82993C2.85975 18.7868 2.04915 19.4679 1.84151 20.3758C1.07501 20.4148 0.461914 21.0452 0.461914 21.8215ZM3.82993 19.7099H9.81776C10.271 19.7099 10.6622 19.9803 10.8384 20.3684H2.80927C2.9855 19.9803 3.37673 19.7099 3.82993 19.7099ZM1.91481 21.2914H11.7329C12.0249 21.2914 12.2627 21.5294 12.2627 21.8215C12.2627 22.1135 12.0249 22.3511 11.7329 22.3511H1.91481C1.62275 22.3511 1.38499 22.1135 1.38499 21.8215C1.38499 21.5294 1.62275 21.2914 1.91481 21.2914ZM22.813 20.8849L23.0762 20.5969C23.7333 19.8762 23.6819 18.7552 22.9615 18.0981L16.0152 11.76C15.7354 11.5047 15.3227 11.446 14.9722 11.5654L13.0074 9.77044L14.9758 7.61205C15.1577 7.41193 15.251 7.15187 15.2388 6.87918C15.2292 6.66373 15.1527 6.46373 15.0236 6.29871C15.0583 6.26958 15.0944 6.24231 15.1252 6.20851L15.6683 5.61311C16.0557 5.18897 16.0255 4.52867 15.5992 4.13925L12.1056 0.986455C11.6975 0.613707 11.0063 0.645258 10.6336 1.05361L9.99641 1.752C9.59132 1.50918 9.02567 1.57352 8.70222 1.92846L2.92127 8.26785C2.58636 8.63454 2.56298 9.18174 2.86048 9.57314L2.22401 10.2709C2.03651 10.4764 1.94028 10.7428 1.9529 11.0209C1.96574 11.2989 2.08609 11.5554 2.29342 11.7443L5.78741 14.8975C5.97964 15.0733 6.22889 15.1697 6.48918 15.1697C6.7817 15.1697 7.06227 15.0458 7.25924 14.8299L7.80236 14.2349C7.83326 14.2011 7.85777 14.1633 7.88366 14.1263C8.04755 14.2299 8.23745 14.2872 8.43382 14.2872C8.71845 14.2872 8.99272 14.1682 9.18946 13.9568L11.111 11.8499L13.0714 13.6332C12.962 14.0402 13.1002 14.4181 13.3679 14.6618L20.3142 20.9994C21.0392 21.6618 22.1591 21.6023 22.813 20.8849ZM11.3155 1.6756C11.3791 1.60574 11.4266 1.61656 11.4852 1.66974L14.9787 4.82253C15.0272 4.8667 15.0308 4.94197 14.9866 4.99065L14.4435 5.58606C14.38 5.65592 14.3326 5.646 14.2738 5.59236C13.9077 5.26151 15.5998 6.79074 10.694 2.35703L11.3155 1.6756ZM7.12065 13.6125L6.57708 14.2079C6.51398 14.2773 6.46575 14.2669 6.4076 14.2142L2.91362 11.0605C2.88364 11.0335 2.87621 11.001 2.87508 10.9785C2.87395 10.956 2.87846 10.923 2.90595 10.8928L3.53087 10.2077C8.45625 14.6671 6.75748 13.1291 7.12498 13.4618C7.14242 13.4847 7.15078 13.5088 7.15152 13.5269C7.15264 13.5494 7.14814 13.5823 7.12065 13.6125ZM8.51089 13.3312C8.455 13.3907 8.40812 13.3772 8.36463 13.3394L7.76515 12.7962C7.75388 12.785 7.74526 12.7719 7.7334 12.7611C7.31164 12.3796 9.26123 14.1429 3.60862 9.03047C3.56734 8.99321 3.56434 8.93271 3.60321 8.88984L9.38439 2.55045C9.40895 2.52341 9.43757 2.51755 9.45718 2.51755C9.47338 2.51755 9.49704 2.52301 9.5211 2.54234C16.054 8.45221 13.8008 6.41389 14.2882 6.85484C14.3218 6.88549 14.3234 6.9576 14.2934 6.99051L8.51089 13.3312ZM11.7333 11.1678L12.3857 10.4525L14.2542 12.1598L13.6056 12.8711L11.7333 11.1678ZM13.9899 13.9798C13.9455 13.9396 13.943 13.8716 13.9831 13.8275L15.2406 12.4492C15.2807 12.4052 15.3485 12.402 15.3932 12.442L22.3395 18.7796C22.6838 19.0942 22.7086 19.6301 22.3945 19.9749L22.1312 20.2629C21.829 20.5946 21.2688 20.6203 20.9361 20.3179L13.9899 13.9798Z" fill="#182045"/>
</g>
<defs>
<clipPath id="clip0_480_97">
<rect width="24" height="24" fill="white"/>
</clipPath>
</defs>
</svg>
