<svg width="40" height="41" viewBox="0 0 40 41" fill="none" xmlns="http://www.w3.org/2000/svg">
<path d="M0.769531 36.8689C0.769531 38.2038 1.85577 39.2901 3.19103 39.2901H19.5545C20.8897 39.2901 21.976 38.2038 21.976 36.8689C21.976 35.5752 20.9541 34.5245 19.6766 34.4595C19.3306 32.9463 17.9796 31.8111 16.3626 31.8111H6.38289C4.76592 31.8111 3.41493 32.9463 3.06886 34.4595C1.79135 34.5245 0.769531 35.5752 0.769531 36.8689ZM6.38289 33.3496H16.3626C17.1179 33.3496 17.77 33.8003 18.0637 34.4471H4.68179C4.97551 33.8003 5.62755 33.3496 6.38289 33.3496ZM3.19103 35.9855H19.5545C20.0412 35.9855 20.4375 36.3822 20.4375 36.8689C20.4375 37.3557 20.0412 37.7516 19.5545 37.7516H3.19103C2.70425 37.7516 2.30799 37.3557 2.30799 36.8689C2.30799 36.3822 2.70425 35.9855 3.19103 35.9855ZM38.0213 35.3079L38.46 34.8279C39.5552 33.6267 39.4696 31.7585 38.2688 30.6633L26.6916 20.0999C26.2253 19.6743 25.5375 19.5765 24.9533 19.7755L21.6787 16.7839L24.9594 13.1866C25.2625 12.853 25.418 12.4196 25.3977 11.9651C25.3817 11.606 25.2542 11.2727 25.039 10.9976C25.0968 10.9491 25.157 10.9037 25.2084 10.8473L26.1136 9.85497C26.7592 9.14809 26.7089 8.04758 25.9983 7.39854L20.1757 2.14389C19.4955 1.52264 18.3435 1.57523 17.7223 2.25582L16.6604 3.4198C15.9852 3.0151 15.0425 3.12233 14.5034 3.7139L4.86846 14.2795C4.31027 14.8907 4.27132 15.8027 4.76715 16.455L3.70635 17.6179C3.39385 17.9604 3.23347 18.4044 3.25451 18.8679C3.27592 19.3314 3.47649 19.7588 3.82204 20.0736L9.64536 25.329C9.96574 25.6219 10.3812 25.7827 10.815 25.7827C11.3025 25.7827 11.7701 25.5761 12.0984 25.2163L13.0036 24.2247C13.0551 24.1683 13.096 24.1053 13.1391 24.0437C13.4123 24.2163 13.7288 24.3118 14.056 24.3118C14.5304 24.3118 14.9875 24.1135 15.3154 23.7612L18.518 20.2496L21.7854 23.2218C21.603 23.9001 21.8334 24.53 22.2795 24.9361L33.8566 35.4987C35.0649 36.6028 36.9315 36.5036 38.0213 35.3079ZM18.8588 3.29247C18.9648 3.17603 19.044 3.19406 19.1417 3.2827L24.9642 8.53735C25.045 8.61097 25.051 8.73642 24.9774 8.81755L24.0722 9.80989C23.9663 9.92633 23.8874 9.9098 23.7894 9.8204C23.1792 9.26897 25.9994 11.8177 17.8229 4.42818L18.8588 3.29247ZM11.8674 23.1873L10.9615 24.1796C10.8563 24.2953 10.7759 24.278 10.679 24.1902L4.8557 18.934C4.80575 18.8889 4.79335 18.8348 4.79147 18.7973C4.78959 18.7597 4.7971 18.7049 4.84292 18.6545L5.88446 17.5127C14.0934 24.945 11.2621 22.3816 11.8746 22.9361C11.9037 22.9743 11.9176 23.0145 11.9189 23.0446C11.9207 23.0821 11.9132 23.137 11.8674 23.1873ZM14.1845 22.7185C14.0913 22.8177 14.0132 22.7952 13.9407 22.7321L12.9416 21.8269C12.9228 21.8081 12.9084 21.7863 12.8887 21.7683C12.1857 21.1325 15.4351 24.0713 6.01405 15.5506C5.94525 15.4885 5.94025 15.3876 6.00503 15.3162L15.6403 4.75055C15.6813 4.70548 15.729 4.69571 15.7616 4.69571C15.7886 4.69571 15.8281 4.70482 15.8682 4.73703C26.7563 14.5868 23.001 11.1896 23.8134 11.9245C23.8694 11.9756 23.872 12.0958 23.822 12.1506L14.1845 22.7185ZM19.5552 19.1128L20.6426 17.9206L23.7567 20.7662L22.6757 21.9516L19.5552 19.1128ZM23.3161 23.7995C23.2422 23.7324 23.2379 23.6192 23.3048 23.5456L25.4007 21.2484C25.4675 21.1752 25.5805 21.1698 25.655 21.2364L37.2321 31.7991C37.806 32.3234 37.8474 33.2166 37.3238 33.7913L36.8851 34.2713C36.3814 34.8242 35.4477 34.867 34.8933 34.3629L23.3161 23.7995Z" fill="#182045"/>
</svg>
