<svg width="25" height="25" viewBox="0 0 25 25" fill="none" xmlns="http://www.w3.org/2000/svg">
<path d="M19.9396 13.5C19.7196 13.5 19.4896 13.43 19.2696 13.38C18.8241 13.2818 18.3863 13.1515 17.9596 12.99C17.4957 12.8212 16.9858 12.83 16.5279 13.0146C16.0701 13.1992 15.6967 13.5466 15.4796 13.99L15.2596 14.44C14.2856 13.8982 13.3906 13.2252 12.5996 12.44C11.8144 11.649 11.1414 10.754 10.5996 9.77999L11.0196 9.49999C11.463 9.28291 11.8104 8.90952 11.995 8.45168C12.1796 7.99384 12.1884 7.4839 12.0196 7.01999C11.8608 6.59241 11.7305 6.15479 11.6296 5.70999C11.5796 5.48999 11.5396 5.25999 11.5096 5.02999C11.3882 4.32561 11.0192 3.68773 10.4692 3.23123C9.91923 2.77473 9.22431 2.5296 8.50961 2.53999H5.50961C5.07864 2.53594 4.65186 2.6248 4.25832 2.80052C3.86478 2.97624 3.51372 3.23469 3.22904 3.55827C2.94436 3.88186 2.73275 4.26298 2.6086 4.6757C2.48445 5.08842 2.45069 5.52305 2.50961 5.94999C3.04235 10.1394 4.95564 14.0319 7.94726 17.0126C10.9389 19.9934 14.8383 21.8925 19.0296 22.41H19.4096C20.147 22.4111 20.859 22.1405 21.4096 21.65C21.726 21.367 21.9787 21.0202 22.1511 20.6323C22.3235 20.2444 22.4116 19.8244 22.4096 19.4V16.4C22.3974 15.7054 22.1444 15.0365 21.694 14.5077C21.2435 13.9788 20.6234 13.6226 19.9396 13.5ZM20.4396 19.5C20.4394 19.642 20.409 19.7823 20.3504 19.9116C20.2918 20.0409 20.2063 20.1563 20.0996 20.25C19.9879 20.3465 19.8572 20.4185 19.716 20.4616C19.5748 20.5046 19.4262 20.5177 19.2796 20.5C15.5345 20.0198 12.0558 18.3065 9.39233 15.6303C6.72881 12.9541 5.03202 9.46733 4.56961 5.71999C4.5537 5.57351 4.56765 5.42532 4.61061 5.28438C4.65358 5.14344 4.72468 5.01268 4.81961 4.89999C4.91332 4.79332 5.02867 4.70783 5.15799 4.64921C5.28731 4.59058 5.42763 4.56017 5.56961 4.55999H8.56961C8.80216 4.55482 9.02924 4.63087 9.21176 4.77506C9.39428 4.91925 9.52082 5.12256 9.56961 5.34999C9.60961 5.62332 9.65961 5.89332 9.71961 6.15999C9.83513 6.68713 9.98887 7.20517 10.1796 7.70999L8.77961 8.35999C8.65991 8.41491 8.55223 8.49294 8.46277 8.58959C8.37331 8.68623 8.30381 8.7996 8.25828 8.92318C8.21275 9.04677 8.19208 9.17812 8.19746 9.30971C8.20284 9.4413 8.23415 9.57054 8.28961 9.68999C9.72881 12.7727 12.2069 15.2508 15.2896 16.69C15.5331 16.79 15.8062 16.79 16.0496 16.69C16.1743 16.6454 16.2889 16.5764 16.3868 16.4872C16.4846 16.3979 16.5638 16.2901 16.6196 16.17L17.2396 14.77C17.7566 14.9549 18.2842 15.1085 18.8196 15.23C19.0863 15.29 19.3563 15.34 19.6296 15.38C19.857 15.4288 20.0604 15.5553 20.2045 15.7378C20.3487 15.9204 20.4248 16.1474 20.4196 16.38L20.4396 19.5Z" fill="#182045"/>
</svg>
