<svg width="40" height="41" viewBox="0 0 40 41" fill="none" xmlns="http://www.w3.org/2000/svg">
<path fill-rule="evenodd" clip-rule="evenodd" d="M9.20758 8.67093V10.1349H7.73008V8.67093H9.20758ZM9.20758 12.678V14.142H7.73008V12.678H9.20758ZM9.20758 16.6851V18.1491H7.73008V16.6851H9.20758ZM9.20758 20.6922V22.1562H7.73008V20.6922H9.20758ZM12.755 8.67093V10.1349H11.2775V8.67093H12.755ZM12.755 12.678V14.142H11.2775V12.678H12.755ZM12.755 16.6851V18.1491H11.2775V16.6851H12.755ZM12.755 20.6922V22.1562H11.2775V20.6922H12.755ZM37.2723 35.8517H2.7275V37.4897H37.2724V35.8517H37.2723ZM30.677 34.3742H34.7014V13.4174L30.677 11.3713V34.3743V34.3742ZM19.9233 34.3742H29.1995V10.9064H21.4773H21.4741H19.9233V34.3742ZM16.4284 34.3742V3.97218L20.7385 6.1564V9.42882H19.1845C18.7766 9.42882 18.4458 9.7596 18.4458 10.1676V34.3741L16.4284 34.3742ZM1.98875 34.3742C1.58078 34.3742 1.25 34.705 1.25 35.113V38.2284C1.25 38.6364 1.58078 38.9672 1.98875 38.9672H38.0112C38.4191 38.9672 38.7499 38.6364 38.7499 38.2284V35.113C38.7499 34.705 38.4191 34.3742 38.0112 34.3742H36.179V12.9648H36.1786C36.1784 12.6961 36.0309 12.4371 35.775 12.3069L30.2989 9.52272C30.1923 9.46296 30.0693 9.42882 29.9384 9.42882H22.2162V5.70468H22.2145C22.2142 5.43554 22.066 5.17624 21.8093 5.04671L16.0702 2.13835C15.9591 2.07147 15.829 2.03296 15.6898 2.03296H4.93594C4.52797 2.03296 4.19719 2.36374 4.19719 2.77171V34.3741L1.98875 34.3742ZM11.2978 34.3742H9.32773V30.8587H11.2978V34.3742ZM7.85023 34.3742V30.1199C7.85023 29.7119 8.18102 29.3812 8.58898 29.3812H12.0366C12.4445 29.3812 12.7753 29.7119 12.7753 30.1199V34.3742H14.9509V3.51046H5.67469V34.3741L7.85023 34.3742ZM9.20758 24.6993V26.1633H7.73008V24.6993H9.20758ZM12.755 24.6993V26.1633H11.2775V24.6993H12.755ZM23.6161 16.0725V17.5364H22.1386V16.0725H23.6161ZM23.6161 20.0796V21.5435H22.1386V20.0796H23.6161ZM23.6161 24.0866V25.5506H22.1386V24.0866H23.6161ZM27.1635 16.0725V17.5364H25.686V16.0725H27.1635ZM27.1635 20.0796V21.5435H25.686V20.0796H27.1635ZM27.1635 24.0866V25.5506H25.686V24.0866H27.1635ZM23.6161 28.0938V29.5578H22.1386V28.0938H23.6161ZM27.1635 28.0938V29.5578H25.686V28.0938H27.1635Z" fill="#182045"/>
</svg>
