<svg width="40" height="41" viewBox="0 0 40 41" fill="none" xmlns="http://www.w3.org/2000/svg">
<path d="M38.8317 12.5142C38.8317 10.3087 37.0371 8.51416 34.8317 8.51416H5.16992C2.96448 8.51416 1.16992 10.3087 1.16992 12.5142V28.486C1.16992 30.6915 2.96448 32.486 5.16992 32.486H34.8317C37.0371 32.486 38.8317 30.6915 38.8317 28.486V12.5142ZM37.2317 28.486C37.2317 29.8094 36.1551 30.886 34.8317 30.886H5.16992C3.84648 30.886 2.76992 29.8094 2.76992 28.486V12.5142C2.76992 11.1907 3.84648 10.1142 5.16992 10.1142H34.8317C36.1551 10.1142 37.2317 11.1907 37.2317 12.5142V28.486Z" fill="#182045"/>
<path d="M13.9586 11.9961C13.1978 11.9961 12.4785 12.1701 11.8307 12.4725C11.1665 12.1645 10.4426 11.9946 9.70624 11.9946C6.92344 11.9946 4.66016 14.2633 4.66016 17.0517C4.66016 19.8345 6.92344 22.0977 9.70624 22.0977C10.442 22.0977 11.1642 21.9286 11.8268 21.6218C12.4755 21.9254 13.1962 22.1001 13.9586 22.1001C16.7438 22.1001 19.0102 19.8337 19.0102 17.0485C19.0102 14.2625 16.7438 11.9961 13.9586 11.9961ZM6.26016 17.0517C6.26016 15.1453 7.80624 13.5946 9.70624 13.5946C9.88792 13.5946 10.0654 13.6124 10.2406 13.6393C9.41496 14.5391 8.90624 15.734 8.90624 17.0485C8.90624 18.361 9.41384 19.5545 10.2377 20.4537C10.0634 20.4803 9.88688 20.4977 9.70624 20.4977C7.80624 20.4977 6.26016 18.9517 6.26016 17.0517ZM13.9586 20.5001C12.0547 20.5001 10.5062 18.9517 10.5062 17.0485C10.5062 15.1446 12.0547 13.5961 13.9586 13.5961C15.8618 13.5961 17.4102 15.1446 17.4102 17.0485C17.4102 18.9517 15.8618 20.5001 13.9586 20.5001ZM18.2102 25.8532H5.8508C5.40864 25.8532 5.0508 26.211 5.0508 26.6532C5.0508 27.0953 5.40864 27.4532 5.8508 27.4532H18.2102C18.6523 27.4532 19.0102 27.0953 19.0102 26.6532C19.0102 26.211 18.6523 25.8532 18.2102 25.8532ZM32.9172 21.9196H25.0508C24.6086 21.9196 24.2508 22.2774 24.2508 22.7196C24.2508 23.1618 24.6086 23.5196 25.0508 23.5196H32.9172C33.3594 23.5196 33.7172 23.1618 33.7172 22.7196C33.7172 22.2774 33.3594 21.9196 32.9172 21.9196ZM32.9172 25.8532H25.0508C24.6086 25.8532 24.2508 26.211 24.2508 26.6532C24.2508 27.0953 24.6086 27.4532 25.0508 27.4532H32.9172C33.3594 27.4532 33.7172 27.0953 33.7172 26.6532C33.7172 26.211 33.3594 25.8532 32.9172 25.8532Z" fill="#182045"/>
</svg>
