<svg width="40" height="41" viewBox="0 0 40 41" fill="none" xmlns="http://www.w3.org/2000/svg">
<path d="M20 14.4062C20.3236 14.4062 20.5859 14.1439 20.5859 13.8203C20.5859 13.4967 20.3236 13.2344 20 13.2344C19.6764 13.2344 19.4141 13.4967 19.4141 13.8203C19.4141 14.1439 19.6764 14.4062 20 14.4062Z" fill="black"/>
<path d="M20 26.4375C20.3236 26.4375 20.5859 26.1752 20.5859 25.8516C20.5859 25.528 20.3236 25.2656 20 25.2656C19.6764 25.2656 19.4141 25.528 19.4141 25.8516C19.4141 26.1752 19.6764 26.4375 20 26.4375Z" fill="black"/>
<path d="M36.6309 20.1641C36.9545 20.1641 37.2168 19.9017 37.2168 19.5781C37.2168 19.2545 36.9545 18.9922 36.6309 18.9922C36.3073 18.9922 36.0449 19.2545 36.0449 19.5781C36.0449 19.9017 36.3073 20.1641 36.6309 20.1641Z" fill="black"/>
<path d="M3.36914 20.1641C3.69274 20.1641 3.95508 19.9017 3.95508 19.5781C3.95508 19.2545 3.69274 18.9922 3.36914 18.9922C3.04554 18.9922 2.7832 19.2545 2.7832 19.5781C2.7832 19.9017 3.04554 20.1641 3.36914 20.1641Z" fill="black"/>
<path d="M29.0469 18.5336C29.3705 18.5336 29.6328 18.2712 29.6328 17.9476C29.6328 17.624 29.3705 17.3617 29.0469 17.3617C28.7233 17.3617 28.4609 17.624 28.4609 17.9476C28.4609 18.2712 28.7233 18.5336 29.0469 18.5336Z" fill="black"/>
<path d="M10.9531 18.5336C11.2767 18.5336 11.5391 18.2712 11.5391 17.9476C11.5391 17.624 11.2767 17.3617 10.9531 17.3617C10.6295 17.3617 10.3672 17.624 10.3672 17.9476C10.3672 18.2712 10.6295 18.5336 10.9531 18.5336Z" fill="black"/>
<path d="M36.875 31.1641H3.125C2.15419 31.1641 1.36719 31.9511 1.36719 32.9219C1.36719 33.8927 2.15419 34.6797 3.125 34.6797H36.875C37.8458 34.6797 38.6328 33.8927 38.6328 32.9219C38.6328 31.9511 37.8458 31.1641 36.875 31.1641Z" fill="#FED030"/>
<path d="M36.875 31.1641H35.7031C36.1693 31.1641 36.6164 31.3493 36.9461 31.6789C37.2757 32.0086 37.4609 32.4557 37.4609 32.9219C37.4609 33.3881 37.2757 33.8352 36.9461 34.1648C36.6164 34.4945 36.1693 34.6797 35.7031 34.6797H36.875C37.3412 34.6797 37.7883 34.4945 38.118 34.1648C38.4476 33.8352 38.6328 33.3881 38.6328 32.9219C38.6328 32.4557 38.4476 32.0086 38.118 31.6789C37.7883 31.3493 37.3412 31.1641 36.875 31.1641Z" fill="#F8BE32"/>
<path d="M3.53516 31.1641C3.04714 28.4505 2.55833 25.7372 2.06875 23.0242L0.585938 16.2031L5.87891 18.4297L5.86328 18.4578C5.6295 18.7299 5.4787 19.0634 5.42879 19.4187C5.37887 19.774 5.43192 20.1361 5.58166 20.4622C5.73139 20.7882 5.97151 21.0644 6.27353 21.258C6.57555 21.4517 6.92678 21.5546 7.28555 21.5546C7.64431 21.5546 7.99554 21.4517 8.29756 21.258C8.59958 21.0644 8.83971 20.7882 8.98944 20.4622C9.13917 20.1361 9.19223 19.774 9.14231 19.4187C9.09239 19.0634 8.94159 18.7299 8.70781 18.4578L8.69141 18.4297C9.04141 16.4141 9.39167 14.3982 9.74219 12.382L13.3008 17.4922C13.1881 17.8351 13.1523 18.1987 13.1961 18.557C13.3523 19.7781 14.4164 20.4109 14.5414 20.4828C15.0066 20.746 15.5365 20.8725 16.0704 20.8479C16.6043 20.8233 17.1204 20.6486 17.5594 20.3438C18.7883 19.475 18.7414 17.9812 18.7312 17.8195C18.6719 16.6102 17.8555 15.5203 16.6508 15.0312L19.9797 6.32031H20.0203L23.3469 15.0312C22.1422 15.5203 21.3258 16.6102 21.2664 17.8195C21.2586 17.9812 21.2117 19.475 22.4383 20.3438C22.8773 20.6484 23.3935 20.8231 23.9274 20.8475C24.4612 20.872 24.9912 20.7453 25.4562 20.482C25.5812 20.4102 26.6453 19.7789 26.8016 18.5562C26.8453 18.1979 26.8096 17.8344 26.6969 17.4914L30.2555 12.3813C30.6055 14.3969 30.9557 16.4128 31.3062 18.4289L31.2898 18.457C31.0561 18.7292 30.9053 19.0627 30.8553 19.4179C30.8054 19.7732 30.8585 20.1353 31.0082 20.4614C31.158 20.7874 31.3981 21.0636 31.7001 21.2573C32.0021 21.4509 32.3533 21.5538 32.7121 21.5538C33.0709 21.5538 33.4221 21.4509 33.7241 21.2573C34.0261 21.0636 34.2663 20.7874 34.416 20.4614C34.5657 20.1353 34.6188 19.7732 34.5689 19.4179C34.519 19.0627 34.3682 18.7292 34.1344 18.457L34.1188 18.4289L39.4141 16.2031L37.9297 23.0281C37.4406 25.7417 36.9518 28.4549 36.4633 31.168L3.53516 31.1641Z" fill="#FED030"/>
<path d="M17.1461 15.2789C17.035 15.091 16.9055 14.9146 16.7594 14.7523C16.7234 14.8453 16.6883 14.9391 16.6523 15.032C16.823 15.1015 16.9881 15.1841 17.1461 15.2789ZM30.1359 17.2578L30.1195 17.2859C29.9197 17.5184 29.78 17.7964 29.7125 18.0954C29.645 18.3945 29.6519 18.7055 29.7326 19.0013C29.8132 19.2971 29.9652 19.5686 30.1751 19.792C30.385 20.0154 30.6465 20.1839 30.9367 20.2828C30.8319 19.9742 30.8093 19.6435 30.8712 19.3235C30.9331 19.0034 31.0774 18.7051 31.2898 18.4578L31.3063 18.4297C30.9557 16.4141 30.606 14.3982 30.257 12.382C29.9992 12.7534 29.7409 13.1242 29.482 13.4945L30.1359 17.2578ZM22.1742 13.8594C20.9695 14.3484 20.1531 15.4383 20.0937 16.6477C20.0859 16.8094 20.0391 18.3031 21.2656 19.1719C21.3731 19.2476 21.4859 19.3155 21.6031 19.375C21.3646 18.892 21.2479 18.358 21.2633 17.8195C21.3227 16.6102 22.1391 15.5203 23.3437 15.0312L20.0195 6.32031H19.9789L19.6367 7.21875L22.1742 13.8594Z" fill="#F8BE32"/>
<path d="M37.8437 16.861C37.4823 18.5277 37.1208 20.1915 36.7594 21.8524L35.5242 28.7071C35.4591 29.0679 35.2692 29.3944 34.9877 29.6293C34.7062 29.8643 34.351 29.9927 33.9844 29.9922H3.32422L3.53516 31.1641H36.4648L37.9312 23.0243L39.4156 16.1993L37.8437 16.861ZM12.1289 16.3204C12.0162 16.6633 11.9805 17.0269 12.0242 17.3852C12.1805 18.6063 13.2445 19.2391 13.3695 19.311C13.3961 19.3258 13.4227 19.3391 13.4477 19.3532C13.3158 19.1053 13.2297 18.8356 13.1937 18.5571C13.15 18.1988 13.1857 17.8352 13.2984 17.4922L9.74219 12.3821L9.67109 12.7907L12.1289 16.3204ZM4.25547 18.761C4.30257 19.1062 4.44491 19.4314 4.66653 19.7002C4.88815 19.969 5.18028 20.1708 5.51016 20.2829C5.4053 19.9742 5.38272 19.6436 5.44464 19.3235C5.50657 19.0035 5.65086 18.7051 5.86328 18.4579L5.87891 18.4297L4.375 17.7977C4.25129 18.1027 4.21007 18.435 4.25547 18.761Z" fill="#F8BE32"/>
<path d="M20 28.3516C21.4023 28.3516 22.5391 27.2148 22.5391 25.8125C22.5391 24.4102 21.4023 23.2734 20 23.2734C18.5977 23.2734 17.4609 24.4102 17.4609 25.8125C17.4609 27.2148 18.5977 28.3516 20 28.3516Z" fill="#EB304A"/>
<path d="M20 23.2734C19.8027 23.2735 19.606 23.2966 19.4141 23.3422C19.9699 23.4742 20.465 23.7899 20.8193 24.2382C21.1736 24.6865 21.3663 25.2411 21.3663 25.8125C21.3663 26.3839 21.1736 26.9385 20.8193 27.3868C20.465 27.8351 19.9699 28.1508 19.4141 28.2828C19.7628 28.3657 20.1251 28.3737 20.4771 28.3065C20.8291 28.2393 21.163 28.0983 21.4566 27.8928C21.7503 27.6873 21.9971 27.422 22.1809 27.1143C22.3646 26.8066 22.4811 26.4635 22.5228 26.1075C22.5644 25.7515 22.5302 25.3907 22.4224 25.0489C22.3147 24.7071 22.1357 24.392 21.8974 24.1243C21.6591 23.8566 21.3668 23.6424 21.0398 23.4957C20.7128 23.3491 20.3584 23.2733 20 23.2734Z" fill="#E4222E"/>
<path d="M33.3594 26.9844C34.0066 26.9844 34.5312 26.4597 34.5312 25.8125C34.5312 25.1653 34.0066 24.6406 33.3594 24.6406C32.7122 24.6406 32.1875 25.1653 32.1875 25.8125C32.1875 26.4597 32.7122 26.9844 33.3594 26.9844Z" fill="#EB304A"/>
<path d="M33.3598 24.6406C33.2749 24.6408 33.1903 24.6502 33.1074 24.6688C33.3675 24.7268 33.6 24.8717 33.7666 25.0796C33.9333 25.2875 34.0241 25.546 34.0241 25.8125C34.0241 26.079 33.9333 26.3375 33.7666 26.5454C33.6 26.7533 33.3675 26.8982 33.1074 26.9563C33.2683 26.9922 33.435 26.9937 33.5965 26.9608C33.758 26.9279 33.9108 26.8613 34.0448 26.7653C34.1788 26.6694 34.2911 26.5462 34.3743 26.4039C34.4575 26.2616 34.5097 26.1033 34.5276 25.9395C34.5454 25.7756 34.5285 25.6098 34.4779 25.4529C34.4274 25.296 34.3442 25.1516 34.234 25.029C34.1238 24.9064 33.989 24.8084 33.8383 24.7415C33.6877 24.6746 33.5246 24.6402 33.3598 24.6406Z" fill="#E4222E"/>
<path d="M6.64062 26.9844C7.28783 26.9844 7.8125 26.4597 7.8125 25.8125C7.8125 25.1653 7.28783 24.6406 6.64062 24.6406C5.99342 24.6406 5.46875 25.1653 5.46875 25.8125C5.46875 26.4597 5.99342 26.9844 6.64062 26.9844Z" fill="#EB304A"/>
<path d="M12.9695 28.4523L10.9531 25.8125L12.9695 23.1726L14.9859 25.8125L12.9695 28.4523Z" fill="#1CABE1"/>
<path d="M12.9688 23.1726L12.3828 23.9375L13.4516 25.3359C13.5556 25.4721 13.612 25.6387 13.612 25.8101C13.612 25.9815 13.5556 26.1481 13.4516 26.2843L12.3828 27.6875L12.9688 28.4546L14.9852 25.8125L12.9688 23.1726Z" fill="#199AD5"/>
<path d="M27.032 28.4523L25.0156 25.8125L27.032 23.1726L29.0484 25.8125L27.032 28.4523Z" fill="#1CABE1"/>
<path d="M27.0312 23.1726L26.4453 23.9375L27.5141 25.3359C27.6181 25.4721 27.6745 25.6387 27.6745 25.8101C27.6745 25.9815 27.6181 26.1481 27.5141 26.2843L26.4453 27.6875L27.0312 28.4546L29.0477 25.8125L27.0312 23.1726Z" fill="#199AD5"/>
<path d="M20 14.4062C20.3236 14.4062 20.5859 14.1439 20.5859 13.8203C20.5859 13.4967 20.3236 13.2344 20 13.2344C19.6764 13.2344 19.4141 13.4967 19.4141 13.8203C19.4141 14.1439 19.6764 14.4062 20 14.4062Z" fill="#EB304A"/>
<path d="M20 26.4375C20.3236 26.4375 20.5859 26.1752 20.5859 25.8516C20.5859 25.528 20.3236 25.2656 20 25.2656C19.6764 25.2656 19.4141 25.528 19.4141 25.8516C19.4141 26.1752 19.6764 26.4375 20 26.4375Z" fill="#182045"/>
<path d="M36.6309 20.1641C36.9545 20.1641 37.2168 19.9017 37.2168 19.5781C37.2168 19.2545 36.9545 18.9922 36.6309 18.9922C36.3073 18.9922 36.0449 19.2545 36.0449 19.5781C36.0449 19.9017 36.3073 20.1641 36.6309 20.1641Z" fill="#EB304A"/>
<path d="M3.36914 20.1641C3.69274 20.1641 3.95508 19.9017 3.95508 19.5781C3.95508 19.2545 3.69274 18.9922 3.36914 18.9922C3.04554 18.9922 2.7832 19.2545 2.7832 19.5781C2.7832 19.9017 3.04554 20.1641 3.36914 20.1641Z" fill="#EB304A"/>
<path d="M29.0469 18.5336C29.3705 18.5336 29.6328 18.2712 29.6328 17.9476C29.6328 17.624 29.3705 17.3617 29.0469 17.3617C28.7233 17.3617 28.4609 17.624 28.4609 17.9476C28.4609 18.2712 28.7233 18.5336 29.0469 18.5336Z" fill="#1CABE1"/>
<path d="M10.9531 18.5336C11.2767 18.5336 11.5391 18.2712 11.5391 17.9476C11.5391 17.624 11.2767 17.3617 10.9531 17.3617C10.6295 17.3617 10.3672 17.624 10.3672 17.9476C10.3672 18.2712 10.6295 18.5336 10.9531 18.5336Z" fill="#1CABE1"/>
<path d="M6.64102 24.6406C6.55613 24.6408 6.47151 24.6502 6.38867 24.6688C6.64874 24.7268 6.88126 24.8717 7.0479 25.0796C7.21454 25.2875 7.30535 25.546 7.30535 25.8125C7.30535 26.079 7.21454 26.3375 7.0479 26.5454C6.88126 26.7533 6.64874 26.8982 6.38867 26.9563C6.54956 26.9922 6.71621 26.9937 6.87774 26.9608C7.03926 26.9279 7.19203 26.8613 7.32606 26.7653C7.46009 26.6694 7.57237 26.5462 7.65556 26.4039C7.73875 26.2616 7.79098 26.1033 7.80883 25.9395C7.82669 25.7756 7.80978 25.6098 7.75919 25.4529C7.70861 25.296 7.62549 25.1516 7.51528 25.029C7.40506 24.9064 7.27023 24.8084 7.11958 24.7415C6.96893 24.6746 6.80586 24.6402 6.64102 24.6406Z" fill="#E4222E"/>
</svg>
