<svg width="14" height="15" viewBox="0 0 14 15" fill="none" xmlns="http://www.w3.org/2000/svg">
<path d="M6.29289 0.792893C6.68342 0.402369 7.31658 0.402369 7.70711 0.792893L13.7071 6.79289C14.0976 7.18342 14.0976 7.81658 13.7071 8.20711L7.70711 14.2071C7.31658 14.5976 6.68342 14.5976 6.29289 14.2071C5.90237 13.8166 5.90237 13.1834 6.29289 12.7929L11.5858 7.5L6.29289 2.20711C5.90237 1.81658 5.90237 1.18342 6.29289 0.792893ZM0.292894 0.792893C0.683419 0.402369 1.31658 0.402369 1.70711 0.792893L7.70711 6.79289C7.89464 6.98043 8 7.23478 8 7.5C8 7.76522 7.89464 8.01957 7.70711 8.20711L1.70711 14.2071C1.31658 14.5976 0.683417 14.5976 0.292893 14.2071C-0.0976311 13.8166 -0.0976311 13.1834 0.292893 12.7929L5.58579 7.5L0.292894 2.20711C-0.0976301 1.81658 -0.0976301 1.18342 0.292894 0.792893Z" fill="#AF2B27"/>
</svg>
