<svg width="14" height="15" viewBox="0 0 14 15" fill="none" xmlns="http://www.w3.org/2000/svg">
<path d="M7.70711 14.2071C7.31658 14.5976 6.68342 14.5976 6.29289 14.2071L0.292894 8.20711C-0.0976305 7.81658 -0.0976305 7.18342 0.292894 6.79289L6.29289 0.792893C6.68342 0.402369 7.31658 0.402369 7.70711 0.792893C8.09763 1.18342 8.09763 1.81658 7.70711 2.20711L2.41421 7.5L7.70711 12.7929C8.09763 13.1834 8.09763 13.8166 7.70711 14.2071ZM13.7071 14.2071C13.3166 14.5976 12.6834 14.5976 12.2929 14.2071L6.29289 8.20711C6.10536 8.01957 6 7.76522 6 7.5C6 7.23478 6.10536 6.98043 6.29289 6.79289L12.2929 0.792893C12.6834 0.402369 13.3166 0.402369 13.7071 0.792893C14.0976 1.18342 14.0976 1.81658 13.7071 2.20711L8.41421 7.5L13.7071 12.7929C14.0976 13.1834 14.0976 13.8166 13.7071 14.2071Z" fill="#AF2B27"/>
</svg>
