<svg width="82" height="87" viewBox="0 0 82 87" fill="none" xmlns="http://www.w3.org/2000/svg">
<rect y="0.286377" width="82" height="86" rx="15" fill="#C79B07" fill-opacity="0.25"/>
<path d="M48.7569 34.1202C46.4481 31.953 43.4269 30.8687 40.257 31.0717C34.5993 31.4351 30.0546 35.973 29.6855 41.6284C29.4925 44.6356 30.4645 47.54 32.4273 49.8124C32.7177 50.144 33.3037 51.0743 33.9613 53.5703C34.1308 54.2183 34.4087 54.8154 34.7802 55.3564V58.4893C34.7802 60.3949 35.9711 62.0245 37.6463 62.6821C37.8009 63.9176 39.2423 64.8863 41.0001 64.8863C42.7189 64.8863 44.134 63.9599 44.3404 62.7637C46.1317 62.1676 47.4287 60.4789 47.4287 58.4898V54.9373C47.6778 54.4981 47.877 54.0292 48.0095 53.5256C48.6306 51.128 49.2052 50.2261 49.4913 49.9021C51.3273 47.8309 52.3381 45.1631 52.3381 42.3901C52.3386 39.2711 51.033 36.2562 48.7569 34.1202ZM45.5087 58.4898C45.5087 59.9159 44.3485 61.076 42.9225 61.076H39.2865C37.8604 61.076 36.7002 59.9159 36.7002 58.4898V56.1114H45.5087V58.4898ZM48.0541 48.6296C47.3317 49.4456 46.7092 50.8895 46.1519 53.0399C46.042 53.456 45.8721 53.8415 45.645 54.1909H41.4781V47.3634C43.5124 47.0197 45.0685 45.2504 45.0685 43.1197C45.0685 40.7442 43.1361 38.8112 40.7601 38.8112C38.3841 38.8112 36.4516 40.7437 36.4516 43.1197C36.4516 45.249 38.0053 47.0173 40.0377 47.3624V54.1909H36.3057C36.0868 53.8535 35.9231 53.4829 35.818 53.0821C35.2319 50.8573 34.5954 49.3741 33.8759 48.5519C32.2482 46.6679 31.4404 44.2525 31.6012 41.7517C31.9074 37.0573 35.6812 33.2888 40.3789 32.9874C43.0132 32.8213 45.5245 33.7189 47.4426 35.5194C49.3612 37.3199 50.4181 39.7597 50.4181 42.3892C50.4186 44.6936 49.5791 46.9093 48.0541 48.6296ZM40.7601 45.9882C39.1785 45.9882 37.8916 44.7013 37.8916 43.1197C37.8916 41.5381 39.1785 40.2512 40.7601 40.2512C42.3417 40.2512 43.6285 41.5381 43.6285 43.1197C43.6285 44.7013 42.3417 45.9882 40.7601 45.9882ZM25.4049 41.338H21.3484C20.8713 41.338 20.4844 41.7248 20.4844 42.202C20.4844 42.6791 20.8713 43.066 21.3484 43.066H25.4049C25.882 43.066 26.2689 42.6791 26.2689 42.202C26.2689 41.7248 25.882 41.338 25.4049 41.338ZM60.6517 41.338H56.5953C56.1181 41.338 55.7313 41.7248 55.7313 42.202C55.7313 42.6791 56.1181 43.066 56.5953 43.066H60.6517C61.1289 43.066 61.5157 42.6791 61.5157 42.202C61.5157 41.7248 61.1293 41.338 60.6517 41.338ZM29.3615 52.6189L26.493 55.4874C26.1556 55.8244 26.1556 56.3716 26.493 56.709C26.662 56.878 26.8828 56.962 27.1041 56.962C27.3249 56.962 27.5461 56.8775 27.7151 56.709L30.5836 53.8405C30.921 53.5036 30.921 52.9564 30.5836 52.6189C30.2466 52.282 29.6994 52.2815 29.3615 52.6189ZM52.0276 32.0384C52.2484 32.0384 52.4697 31.954 52.6386 31.7855L55.5071 28.917C55.8445 28.58 55.8445 28.0328 55.5071 27.6954C55.1701 27.3584 54.6229 27.358 54.285 27.6954L51.4165 30.5639C51.0791 30.9008 51.0791 31.448 51.4165 31.7855C51.5855 31.9544 51.8063 32.0384 52.0276 32.0384ZM40.1361 22.5503V26.6068C40.1361 27.0839 40.5229 27.4708 41.0001 27.4708C41.4772 27.4708 41.8641 27.0839 41.8641 26.6068V22.5503C41.8641 22.0732 41.4772 21.6863 41.0001 21.6863C40.5229 21.6863 40.1361 22.0732 40.1361 22.5503ZM52.6386 52.6189C52.3012 52.2815 51.754 52.2815 51.4165 52.6189C51.0791 52.9564 51.0791 53.5036 51.4165 53.8405L54.285 56.709C54.454 56.878 54.6753 56.962 54.8961 56.962C55.1169 56.962 55.3381 56.8775 55.5071 56.709C55.8445 56.3716 55.8445 55.8244 55.5071 55.4874L52.6386 52.6189ZM29.3615 31.7855C29.5305 31.9544 29.7517 32.0384 29.9725 32.0384C30.1933 32.0384 30.4146 31.954 30.5836 31.7855C30.921 31.448 30.921 30.9008 30.5836 30.5639L27.7151 27.6954C27.3777 27.358 26.8305 27.358 26.493 27.6954C26.1556 28.0328 26.1556 28.58 26.493 28.917L29.3615 31.7855Z" fill="#182045"/>
</svg>
