<svg width="25" height="25" viewBox="0 0 25 25" fill="none" xmlns="http://www.w3.org/2000/svg">
<path d="M12.5 2.5C10.3783 2.5 8.34344 3.34285 6.84315 4.84315C5.34285 6.34344 4.5 8.37827 4.5 10.5C4.5 15.9 11.55 22 11.85 22.26C12.0311 22.4149 12.2616 22.5001 12.5 22.5001C12.7384 22.5001 12.9689 22.4149 13.15 22.26C13.5 22 20.5 15.9 20.5 10.5C20.5 8.37827 19.6571 6.34344 18.1569 4.84315C16.6566 3.34285 14.6217 2.5 12.5 2.5ZM12.5 20.15C10.37 18.15 6.5 13.84 6.5 10.5C6.5 8.9087 7.13214 7.38258 8.25736 6.25736C9.38258 5.13214 10.9087 4.5 12.5 4.5C14.0913 4.5 15.6174 5.13214 16.7426 6.25736C17.8679 7.38258 18.5 8.9087 18.5 10.5C18.5 13.84 14.63 18.16 12.5 20.15ZM12.5 6.5C11.7089 6.5 10.9355 6.7346 10.2777 7.17412C9.61992 7.61365 9.10723 8.23836 8.80448 8.96927C8.50173 9.70017 8.42252 10.5044 8.57686 11.2804C8.7312 12.0563 9.11216 12.769 9.67157 13.3284C10.231 13.8878 10.9437 14.2688 11.7196 14.4231C12.4956 14.5775 13.2998 14.4983 14.0307 14.1955C14.7616 13.8928 15.3864 13.3801 15.8259 12.7223C16.2654 12.0645 16.5 11.2911 16.5 10.5C16.5 9.43913 16.0786 8.42172 15.3284 7.67157C14.5783 6.92143 13.5609 6.5 12.5 6.5ZM12.5 12.5C12.1044 12.5 11.7178 12.3827 11.3889 12.1629C11.06 11.9432 10.8036 11.6308 10.6522 11.2654C10.5009 10.8999 10.4613 10.4978 10.5384 10.1098C10.6156 9.72186 10.8061 9.36549 11.0858 9.08579C11.3655 8.80608 11.7219 8.6156 12.1098 8.53843C12.4978 8.46126 12.8999 8.50087 13.2654 8.65224C13.6308 8.80362 13.9432 9.05996 14.1629 9.38886C14.3827 9.71776 14.5 10.1044 14.5 10.5C14.5 11.0304 14.2893 11.5391 13.9142 11.9142C13.5391 12.2893 13.0304 12.5 12.5 12.5Z" fill="#182045"/>
</svg>
