<svg width="24" height="25" viewBox="0 0 24 25" fill="none" xmlns="http://www.w3.org/2000/svg">
<g clip-path="url(#clip0_612_2141)">
<path d="M17.28 12.4999C17.28 12.7639 17.064 12.9799 16.8 12.9799H7.2C6.936 12.9799 6.72 12.7639 6.72 12.4999C6.72 12.2359 6.936 12.0199 7.2 12.0199H16.8C17.064 12.0199 17.28 12.2359 17.28 12.4999ZM21.12 12.4999C21.12 17.5399 17.04 21.6199 12 21.6199C6.96 21.6199 2.88 17.5399 2.88 12.4999C2.88 7.45988 6.96 3.37988 12 3.37988C17.04 3.37988 21.12 7.45988 21.12 12.4999ZM20.16 12.4999C20.16 7.98788 16.512 4.33988 12 4.33988C7.48801 4.33988 3.84 7.98788 3.84 12.4999C3.84 17.0119 7.48801 20.6599 12 20.6599C16.512 20.6599 20.16 17.0119 20.16 12.4999Z" fill="black"/>
<path d="M327.36 -289.9V114.26H-100.8V-289.9H327.36ZM329.28 -291.82H-102.72V116.18H329.28V-291.82Z" fill="#0000FF"/>
</g>
<defs>
<clipPath id="clip0_612_2141">
<rect width="24" height="24" fill="white" transform="translate(0 0.5)"/>
</clipPath>
</defs>
</svg>
