<svg width="32" height="32" viewBox="0 0 32 32" fill="none" xmlns="http://www.w3.org/2000/svg">
<g clip-path="url(#clip0_378_8001)">
<path d="M16.0002 29.3335C17.4668 29.3335 18.6668 28.1335 18.6668 26.6668H13.3335C13.3335 28.1335 14.5335 29.3335 16.0002 29.3335ZM24.0002 21.3335V14.6668C24.0002 10.5735 21.8268 7.14683 18.0002 6.24016V5.3335C18.0002 4.22683 17.1068 3.3335 16.0002 3.3335C14.8935 3.3335 14.0002 4.22683 14.0002 5.3335V6.24016C10.1868 7.14683 8.00016 10.5602 8.00016 14.6668V21.3335L5.3335 24.0002V25.3335H26.6668V24.0002L24.0002 21.3335ZM21.3335 22.6668H10.6668V14.6668C10.6668 11.3602 12.6802 8.66683 16.0002 8.66683C19.3202 8.66683 21.3335 11.3602 21.3335 14.6668V22.6668Z" fill="#182045" fill-opacity="0.5"/>
</g>
<defs>
<clipPath id="clip0_378_8001">
<rect width="32" height="32" fill="white"/>
</clipPath>
</defs>
</svg>
