<svg width="24" height="24" viewBox="0 0 24 24" fill="none" xmlns="http://www.w3.org/2000/svg">
<g clip-path="url(#clip0_612_620)">
<path d="M17.28 11.9999C17.28 12.2639 17.064 12.4799 16.8 12.4799H12.48V16.7999C12.48 17.0639 12.264 17.2799 12 17.2799C11.736 17.2799 11.52 17.0639 11.52 16.7999V12.4799H7.2C6.936 12.4799 6.72 12.2639 6.72 11.9999C6.72 11.7359 6.936 11.5199 7.2 11.5199H11.52V7.19988C11.52 6.93588 11.736 6.71988 12 6.71988C12.264 6.71988 12.48 6.93588 12.48 7.19988V11.5199H16.8C17.064 11.5199 17.28 11.7359 17.28 11.9999ZM21.12 11.9999C21.12 17.0399 17.04 21.1199 12 21.1199C6.96 21.1199 2.88 17.0399 2.88 11.9999C2.88 6.95988 6.96 2.87988 12 2.87988C17.04 2.87988 21.12 6.95988 21.12 11.9999ZM20.16 11.9999C20.16 7.48788 16.512 3.83988 12 3.83988C7.48801 3.83988 3.84 7.48788 3.84 11.9999C3.84 16.5119 7.48801 20.1599 12 20.1599C16.512 20.1599 20.16 16.5119 20.16 11.9999Z" fill="#182045"/>
<path d="M360.96 -290.4V113.76H-67.2V-290.4H360.96ZM362.88 -292.32H-69.12V115.68H362.88V-292.32Z" fill="#182045"/>
</g>
<defs>
<clipPath id="clip0_612_620">
<rect width="24" height="24" fill="white"/>
</clipPath>
</defs>
</svg>
