<svg width="49" height="48" viewBox="0 0 49 48" fill="none" xmlns="http://www.w3.org/2000/svg">
<path d="M37.7087 18.3712C37.7083 17.1998 37.0706 15.622 36.257 14.7793L26.2572 4.42105C25.7882 3.93526 25.161 3.66772 24.4911 3.66772C23.8205 3.66772 23.1929 3.93576 22.7237 4.42244L12.7321 14.7887C11.9191 15.632 11.2826 17.2103 11.2832 18.3817L11.2924 41.8151C11.293 43.2032 12.4227 44.3324 13.8108 44.3324H13.8118L35.2006 44.3239C35.8713 44.3237 36.5031 44.0609 36.9795 43.5841C37.456 43.1073 37.7182 42.4753 37.718 41.8047L37.7087 18.3712ZM35.9609 42.5663C35.7563 42.771 35.4861 42.8838 35.2 42.8839L13.8112 42.8924L13.8108 43.6124V42.8924C13.2164 42.8924 12.7327 42.4089 12.7324 41.8145L12.7232 18.3811C12.7228 17.578 13.2114 16.3663 13.7689 15.7881L23.7605 5.42179C23.9557 5.21927 24.2152 5.10773 24.4911 5.10773C24.7667 5.10773 25.026 5.21908 25.2212 5.42121L35.221 15.7795C35.7789 16.3573 36.2684 17.5686 36.2687 18.3718L36.278 41.8052C36.2781 42.0912 36.1655 42.3615 35.9609 42.5663Z" fill="#182045"/>
<path d="M24.4933 18.6952H24.4949C26.614 18.6944 28.3374 16.9697 28.3366 14.8505C28.3357 12.7322 26.6116 11.0088 24.4918 11.0088C22.3727 11.0097 20.6493 12.7344 20.6502 14.8536C20.651 16.9719 22.375 18.6952 24.4933 18.6952ZM24.4933 12.4488C25.8179 12.4488 26.896 13.5265 26.8966 14.8511C26.8971 16.1762 25.8194 17.2547 24.4943 17.2552L24.4933 17.9752V17.2552C23.1687 17.2552 22.0907 16.1776 22.0902 14.853C22.0896 13.5279 23.1673 12.4493 24.4933 12.4488ZM27.8862 25.3493C28.2839 25.3493 28.6062 25.0269 28.6062 24.6293C28.6062 24.2317 28.2839 23.9093 27.8862 23.9093H25.2194V21.9077C25.2194 21.5101 24.897 21.1877 24.4994 21.1877C24.1017 21.1877 23.7794 21.5101 23.7794 21.9077V23.9093H23.6829C21.8686 23.9093 20.3926 25.3854 20.3926 27.1997V27.9859C20.3926 29.8002 21.8686 31.2762 23.6829 31.2762H23.7794V35.7632H21.1126C20.7149 35.7632 20.3926 36.0855 20.3926 36.4832C20.3926 36.8808 20.7149 37.2032 21.1126 37.2032H23.7794V39.2047C23.7794 39.6024 24.1017 39.9247 24.4994 39.9247C24.897 39.9247 25.2194 39.6024 25.2194 39.2047V37.2032H25.3159C27.1302 37.2032 28.6062 35.7271 28.6062 33.9128V33.1266C28.6062 31.3123 27.1302 29.8362 25.3159 29.8362H25.2194V25.3493H27.8862ZM25.3159 31.2762C26.3362 31.2762 27.1662 32.1063 27.1662 33.1266V33.9128C27.1662 34.9331 26.3361 35.7632 25.3159 35.7632H25.2194V31.2762H25.3159ZM23.7794 29.8362H23.6829C22.6626 29.8362 21.8326 29.0062 21.8326 27.9859V27.1996C21.8326 26.1794 22.6626 25.3493 23.6829 25.3493H23.7794V29.8362Z" fill="#182045"/>
</svg>
