<svg width="40" height="41" viewBox="0 0 40 41" fill="none" xmlns="http://www.w3.org/2000/svg">
<path fill-rule="evenodd" clip-rule="evenodd" d="M20.0008 7.16688C16.4958 7.16688 13.6545 10.0081 13.6545 13.5125C13.6545 17.0175 16.4958 19.8588 20.0008 19.8588C23.5058 19.8588 26.347 17.0175 26.347 13.5125C26.347 10.0081 23.5058 7.16688 20.0008 7.16688ZM11.9883 13.5125C11.9883 9.0875 15.5758 5.5 20.0008 5.5C24.4258 5.5 28.0133 9.0875 28.0133 13.5125C28.0133 17.9381 24.4258 21.5256 20.0008 21.5256C15.5758 21.5256 11.9883 17.9375 11.9883 13.5125Z" fill="#182045"/>
<path fill-rule="evenodd" clip-rule="evenodd" d="M20 22.1669C12.5875 22.1669 6.66687 27.81 6.66687 34.6669C6.66687 34.8879 6.57907 35.0999 6.42277 35.2562C6.26647 35.4125 6.05448 35.5003 5.83344 35.5003C5.6124 35.5003 5.40041 35.4125 5.24411 35.2562C5.08781 35.0999 5 34.8879 5 34.6669C5 26.7956 11.7644 20.5 20 20.5C28.2362 20.5 35 26.7956 35 34.6669C35 34.8879 34.9122 35.0999 34.7559 35.2562C34.5996 35.4125 34.3876 35.5003 34.1666 35.5003C33.9455 35.5003 33.7335 35.4125 33.5772 35.2562C33.4209 35.0999 33.3331 34.8879 33.3331 34.6669C33.3331 27.81 27.4119 22.1669 20 22.1669Z" fill="#182045"/>
</svg>
