<svg width="24" height="24" viewBox="0 0 24 24" fill="none" xmlns="http://www.w3.org/2000/svg">
<path d="M23.6172 2.18109C23.5874 1.39955 22.7223 0.917798 22.0232 1.23551L1.01036 11.189C0.232249 11.5292 0.146561 12.7052 0.877016 13.1483L5.80187 16.3682V21.7405C5.77305 22.7091 7.05283 23.2506 7.72348 22.5363L10.6937 19.5664L14.8506 22.2843C15.036 22.4055 15.2508 22.4678 15.467 22.4678C15.9293 22.4716 16.3671 22.1683 16.523 21.7317L23.5615 2.6422C23.6143 2.49167 23.6387 2.33618 23.6172 2.18109ZM17.1142 6.05212L8.03044 15.1356L3.79014 12.3634L17.1142 6.05212ZM8.05326 19.023V17.8401L8.76858 18.3078L8.05326 19.023ZM14.8997 19.6265L9.95551 16.3941L19.6752 6.67469L14.8997 19.6265Z" fill="#182045" fill-opacity="0.5"/>
</svg>
