<svg width="83" height="87" viewBox="0 0 83 87" fill="none" xmlns="http://www.w3.org/2000/svg">
<rect x="0.333008" width="82.6667" height="86.2865" rx="15" fill="#C79B07" fill-opacity="0.25"/>
<path d="M46.7235 37.6668L38.5985 45.7917L35.2756 42.4661C34.7573 41.9582 33.9277 41.9582 33.4093 42.4661C32.8835 42.9816 32.875 43.8257 33.3903 44.3516L37.6559 48.6198C37.9059 48.87 38.245 49.0104 38.5986 49.0104C38.9521 49.0104 39.2912 48.87 39.5412 48.6198L48.6279 39.533C49.1432 39.0072 49.1348 38.1629 48.6089 37.6476C48.083 37.1323 47.2389 37.1408 46.7235 37.6668ZM62.9715 21.1523C62.8206 20.4313 62.1139 19.9691 61.3929 20.1198C54.8083 21.5103 47.9421 20.1061 42.432 16.2422C41.9727 15.9193 41.36 15.9193 40.9007 16.2422C35.3908 20.1063 28.5244 21.5106 21.9398 20.1198C21.8503 20.1011 21.7591 20.0916 21.6676 20.0916C20.931 20.0911 20.3335 20.6878 20.333 21.4245V42.8073C20.3374 50.6372 24.1069 57.9875 30.4632 62.5599L40.8903 70.0365C41.1164 70.1992 41.3879 70.2868 41.6663 70.2865C41.9448 70.2868 42.2163 70.1994 42.4424 70.0366L52.8695 62.5599C59.2257 57.9875 62.9953 50.6372 62.9997 42.8073V21.4245C62.9997 21.333 62.9902 21.2419 62.9715 21.1523ZM60.333 42.8073C60.3301 49.7778 56.9753 56.3218 51.3174 60.3932L41.6663 67.3125L32.0153 60.3932C26.3574 56.3216 23.0026 49.7778 22.9997 42.8073V23.0182C29.5111 23.9909 36.153 22.5409 41.6663 18.9427C47.1802 22.5399 53.8218 23.9899 60.333 23.0182V42.8073Z" fill="#182045"/>
</svg>
