<svg width="32" height="32" viewBox="0 0 32 32" fill="none" xmlns="http://www.w3.org/2000/svg">
<g clip-path="url(#clip0_442_8481)">
<path d="M0.293129 20.7068L2.96513 23.3783C3.15266 23.5658 3.40696 23.6711 3.67213 23.6711C3.93729 23.6711 4.1916 23.5658 4.37913 23.3783C4.657 23.0989 4.98755 22.8774 5.35162 22.7266C5.71569 22.5758 6.10606 22.4987 6.50013 22.4998C8.15463 22.4998 9.50013 23.8453 9.50013 25.4998C9.5011 25.894 9.42391 26.2844 9.27303 26.6485C9.12216 27.0127 8.90058 27.3433 8.62113 27.6213C8.43366 27.8088 8.32834 28.0631 8.32834 28.3283C8.32834 28.5935 8.43366 28.8478 8.62113 29.0353L11.2931 31.7068C11.4886 31.9023 11.7441 31.9998 12.0001 31.9998C12.2561 31.9998 12.5121 31.9023 12.7071 31.7068L31.7071 12.7068C31.8002 12.6141 31.874 12.5039 31.9244 12.3826C31.9748 12.2612 32.0007 12.1312 32.0007 11.9998C32.0007 11.8684 31.9748 11.7383 31.9244 11.617C31.874 11.4957 31.8002 11.3855 31.7071 11.2928L29.0351 8.62129C28.8476 8.43382 28.5933 8.3285 28.3281 8.3285C28.063 8.3285 27.8087 8.43382 27.6211 8.62129C27.3433 8.9007 27.0127 9.12222 26.6486 9.27302C26.2846 9.42381 25.8942 9.50089 25.5001 9.49979C23.8456 9.49979 22.5001 8.15429 22.5001 6.49979C22.5001 5.69829 22.8126 4.94529 23.3791 4.37829C23.5666 4.19076 23.6719 3.93645 23.6719 3.67129C23.6719 3.40612 23.5666 3.15181 23.3791 2.96429L20.7071 0.292786C20.5196 0.105315 20.2653 0 20.0001 0C19.735 0 19.4807 0.105315 19.2931 0.292786L0.293129 19.2928C0.200064 19.3855 0.12622 19.4957 0.0758345 19.617C0.0254486 19.7383 -0.000488281 19.8684 -0.000488281 19.9998C-0.000488281 20.1312 0.0254486 20.2612 0.0758345 20.3826C0.12622 20.5039 0.200064 20.6141 0.293129 20.7068ZM13.0001 9.41379L13.7931 10.2068C13.9881 10.4023 14.2441 10.4998 14.5001 10.4998C14.7561 10.4998 15.0121 10.4023 15.2071 10.2068C15.3946 10.0193 15.4999 9.76495 15.4999 9.49979C15.4999 9.23462 15.3946 8.98031 15.2071 8.79279L14.4141 7.99979L20.0001 2.41379L21.3281 3.74129C20.7858 4.55885 20.4977 5.5187 20.5001 6.49979C20.5001 9.25679 22.7431 11.4998 25.5001 11.4998C26.481 11.5025 27.4407 11.2146 28.2581 10.6723L29.5856 11.9998L24.0001 17.5858L23.2071 16.7928C23.1149 16.6973 23.0045 16.6211 22.8825 16.5687C22.7605 16.5163 22.6293 16.4887 22.4965 16.4875C22.3638 16.4864 22.2321 16.5117 22.1092 16.562C21.9863 16.6122 21.8746 16.6865 21.7807 16.7804C21.6868 16.8743 21.6126 16.9859 21.5623 17.1088C21.512 17.2317 21.4867 17.3634 21.4879 17.4962C21.489 17.629 21.5166 17.7602 21.569 17.8822C21.6214 18.0042 21.6976 18.1145 21.7931 18.2068L22.5861 18.9998L12.0001 29.5858L10.6721 28.2583C11.2145 27.4407 11.5026 26.4809 11.5001 25.4998C11.5001 22.7428 9.25713 20.4998 6.50013 20.4998C5.51923 20.4971 4.55951 20.785 3.74213 21.3273L2.41463 19.9998L13.0001 9.41379Z" fill="#182045" fill-opacity="0.5"/>
<path d="M16.7931 13.2071C16.9881 13.4026 17.2441 13.5001 17.5001 13.5001C17.7561 13.5001 18.0121 13.4026 18.2071 13.2071C18.3946 13.0196 18.4999 12.7652 18.4999 12.5001C18.4999 12.2349 18.3946 11.9806 18.2071 11.7931L17.2071 10.7931C17.1148 10.6976 17.0045 10.6214 16.8825 10.569C16.7605 10.5166 16.6293 10.489 16.4965 10.4878C16.3637 10.4867 16.232 10.512 16.1091 10.5623C15.9862 10.6125 15.8746 10.6868 15.7807 10.7807C15.6868 10.8746 15.6125 10.9862 15.5623 11.1091C15.512 11.232 15.4867 11.3637 15.4878 11.4965C15.489 11.6293 15.5166 11.7605 15.569 11.8825C15.6214 12.0045 15.6976 12.1148 15.7931 12.2071L16.7931 13.2071ZM18.7931 15.2071L19.7931 16.2071C19.9881 16.4026 20.2441 16.5001 20.5001 16.5001C20.7561 16.5001 21.0121 16.4026 21.2071 16.2071C21.3946 16.0196 21.4999 15.7652 21.4999 15.5001C21.4999 15.2349 21.3946 14.9806 21.2071 14.7931L20.2071 13.7931C20.1148 13.6976 20.0045 13.6214 19.8825 13.569C19.7605 13.5166 19.6293 13.489 19.4965 13.4878C19.3637 13.4867 19.232 13.512 19.1091 13.5623C18.9862 13.6125 18.8746 13.6868 18.7807 13.7807C18.6868 13.8746 18.6125 13.9862 18.5623 14.1091C18.512 14.232 18.4867 14.3637 18.4878 14.4965C18.489 14.6293 18.5166 14.7605 18.569 14.8825C18.6214 15.0045 18.6976 15.1148 18.7931 15.2071Z" fill="#182045" fill-opacity="0.5"/>
</g>
<defs>
<clipPath id="clip0_442_8481">
<rect width="32" height="32" fill="white"/>
</clipPath>
</defs>
</svg>
