<svg width="82" height="87" viewBox="0 0 82 87" fill="none" xmlns="http://www.w3.org/2000/svg">
<rect y="0.286377" width="82" height="86" rx="15" fill="#C79B07" fill-opacity="0.25"/>
<path d="M65.9909 41.8308L58.7929 29.3636C58.5965 29.0237 58.1619 28.9071 57.8218 29.1034L52.1477 32.3793C51.9845 32.4736 51.8652 32.6288 51.8164 32.8109C51.7676 32.993 51.7931 33.1871 51.8874 33.3504L52.5568 34.51L46.8377 33.0466C45.0265 32.5613 43.2853 32.7905 41.6621 33.728L40.136 34.609L38.61 33.728C36.9862 32.7906 35.2448 32.5613 33.4342 33.0466L30.1421 33.9286C30.2117 33.7782 30.2271 33.6076 30.1839 33.4462C30.1351 33.2641 30.0159 33.1088 29.8526 33.0146L24.1785 29.7387C23.8384 29.5423 23.4037 29.659 23.2073 29.9989L16.0094 42.4659C15.8131 42.8059 15.9297 43.2407 16.2696 43.437L21.9437 46.713C22.0527 46.776 22.1755 46.8083 22.2992 46.8083C22.3607 46.8083 22.4227 46.8003 22.4832 46.784C22.6653 46.7353 22.8206 46.6161 22.9149 46.4528L23.0593 46.2029C24.1447 47.6996 24.2512 47.7914 25.7895 48.7656C25.9707 48.8804 26.1745 49.0095 26.4043 49.1565C26.4 49.5298 26.4938 49.908 26.6942 50.2549L27.2724 51.2565C27.6116 51.8445 28.1691 52.217 28.8416 52.3056C28.9411 52.3187 29.0394 52.3252 29.1367 52.3252C29.4356 52.3252 29.7225 52.2619 29.9879 52.1429C30.0177 52.2103 30.0501 52.277 30.0878 52.3424L30.6176 53.2599C30.9378 53.815 31.4641 54.1667 32.0992 54.2504C32.193 54.2628 32.2857 54.2689 32.3775 54.2689C32.7052 54.2689 33.0182 54.1903 33.3007 54.0395C33.3113 54.0593 33.3206 54.0795 33.3319 54.0991L33.8094 54.9261C34.1091 55.4455 34.6017 55.7747 35.1963 55.8531C35.2839 55.8647 35.3709 55.8704 35.4567 55.8704C35.6698 55.8704 35.8756 55.833 36.0706 55.7642C36.0881 55.7992 36.1056 55.8344 36.1255 55.8687L36.5775 56.6515C36.8673 57.1537 37.3435 57.472 37.9182 57.5478C38.0031 57.559 38.0872 57.5646 38.1703 57.5646C38.6505 57.5646 39.0964 57.3791 39.4462 57.0293L40.5732 55.9023L42.0477 56.6994C42.3404 56.8576 42.6603 56.9359 42.9931 56.9359C43.4954 56.9359 44.0268 56.7576 44.5361 56.4068C45.1929 55.9545 45.8126 55.1845 45.9921 54.401C46.2259 54.4976 46.4749 54.5456 46.7324 54.5456C47.2121 54.5456 47.7207 54.379 48.2127 54.0503C48.9943 53.5282 49.7266 52.5788 49.7769 51.6639C50.227 51.6425 50.6992 51.4788 51.1574 51.1728C51.8472 50.7119 52.4984 49.9179 52.6767 49.109C52.9709 49.2405 53.2804 49.3062 53.5875 49.3062C54.1617 49.3062 54.7266 49.0805 55.1621 48.645L56.0391 47.7682C56.2109 47.5963 56.3495 47.4052 56.4551 47.2002L58.8098 45.3405L59.0851 45.8174C59.2168 46.0456 59.4557 46.173 59.7015 46.173C59.8222 46.173 59.9443 46.1422 60.0563 46.0776L65.7304 42.8017C65.8936 42.7075 66.0128 42.5522 66.0616 42.3701C66.1104 42.188 66.0849 41.9939 65.9907 41.8306L65.9909 41.8308ZM22.039 45.1262L17.5962 42.5611L24.0833 31.3253L28.5261 33.8902L22.039 45.1261V45.1262ZM29.0277 50.896C28.7933 50.8651 28.6221 50.7506 28.5038 50.5459L27.9255 49.5442C27.7595 49.2565 27.8039 48.919 28.0388 48.6841L29.8732 46.8496C29.8867 46.8361 29.8898 46.8336 29.9036 46.8336C29.9063 46.8336 29.9096 46.8336 29.9134 46.8338C29.9371 46.8347 29.938 46.8357 29.9522 46.8521C29.9522 46.8522 29.9524 46.8523 29.9525 46.8524L31.5489 48.6987C31.5679 48.7206 31.5667 48.7512 31.5463 48.7718L30.4082 49.91C30.4082 49.91 30.4082 49.91 30.4082 49.9101L29.625 50.6934C29.4577 50.8606 29.2619 50.9266 29.0279 50.896H29.0277ZM32.285 52.8407C32.0899 52.815 31.9474 52.7197 31.8489 52.5491L31.319 51.6315C31.1808 51.3919 31.2177 51.111 31.4134 50.9155L33.0865 49.2425L34.5353 50.9182L33.6316 51.8219C33.6302 51.8233 33.629 51.825 33.6275 51.8264L32.7819 52.672C32.6428 52.8112 32.4809 52.8668 32.285 52.8406V52.8407ZM35.3823 54.4435C35.2274 54.423 35.1188 54.3505 35.0407 54.2151L34.5633 53.388C34.4554 53.2013 34.4838 52.9826 34.6352 52.8295L35.5475 51.9172C35.5489 51.9158 35.5501 51.9141 35.5516 51.9127L36.0916 51.3727L37.3056 52.777L35.7714 54.3112C35.6609 54.4217 35.5381 54.464 35.3824 54.4432L35.3823 54.4435ZM38.4408 56.024C38.3439 56.121 38.2404 56.1561 38.1043 56.1381C37.9685 56.1202 37.8775 56.0594 37.8091 55.9407L37.3569 55.1576C37.2619 54.993 37.2864 54.8074 37.4209 54.6729L38.7689 53.3247L39.8683 54.5965L38.4408 56.024ZM55.0338 46.7628L54.1568 47.6397C53.888 47.9083 53.5017 47.9591 53.1729 47.7692L45.7443 43.4808C45.4042 43.2845 44.9695 43.4011 44.7731 43.741C44.5768 44.081 44.6934 44.5158 45.0333 44.7121L50.9526 48.1292C51.1574 48.2473 51.2718 48.4187 51.3025 48.6532C51.3369 48.9139 50.9814 49.5802 50.3675 49.9904C50.1898 50.1093 49.7418 50.3657 49.4219 50.181L48.7201 49.7757C48.7201 49.7757 48.7192 49.7752 48.7188 49.7749L48.4297 49.6081L48.4228 49.6041L44.2334 47.1859C43.8931 46.9895 43.4585 47.1063 43.2623 47.4462C43.066 47.7863 43.1826 48.221 43.5226 48.4173L47.7117 50.8353L48.0089 51.007C48.2131 51.1251 48.3272 51.2963 48.358 51.5303C48.3923 51.7911 48.0368 52.4576 47.4228 52.8678C47.2451 52.9865 46.7968 53.2429 46.4774 53.0582L44.0953 51.6832C43.9214 51.5662 43.807 51.4961 43.8022 51.4934C43.7556 51.4665 43.7069 51.4459 43.6576 51.4305L43.518 51.35C43.1779 51.1536 42.7432 51.2702 42.5469 51.6103C42.3506 51.9503 42.4672 52.3851 42.8071 52.5814L43.3746 52.909C43.8256 53.2248 44.4577 53.7474 44.6236 53.9892C44.6088 54.2757 44.2838 54.8538 43.7296 55.2354C43.5444 55.3629 43.0756 55.6387 42.7238 55.4484L41.3249 54.6922C41.3479 54.3578 41.2455 54.0156 41.0122 53.7458L39.7646 52.3027C39.5242 52.0246 39.1893 51.8642 38.8216 51.8508C38.6849 51.8458 38.5513 51.8616 38.4238 51.8967L37.111 50.3781C36.8645 50.0928 36.521 49.9282 36.1441 49.9146C35.9609 49.9076 35.7842 49.9375 35.6201 49.9996C35.6189 49.9982 35.618 49.9966 35.6168 49.9953L34.1545 48.3039C33.8953 48.004 33.5342 47.8308 33.1374 47.8164C32.9854 47.8107 32.8392 47.8278 32.7006 47.8664C32.6763 47.833 32.6511 47.7999 32.6237 47.7683L31.0275 45.9221C30.7526 45.6039 30.385 45.4276 29.9644 45.4124C29.5459 45.3963 29.1647 45.5463 28.8671 45.8439L27.0328 47.6783C26.9935 47.7176 26.9566 47.7582 26.9209 47.7996C26.7878 47.715 26.664 47.6366 26.5496 47.5641C25.6269 46.9798 24.825 46.2175 24.1439 45.2771C24.0504 45.148 23.9479 45.0067 23.837 44.8542L29.1547 35.6436C29.2098 35.642 29.2648 35.6351 29.3185 35.6207L33.8015 34.4195C35.235 34.0354 36.6134 34.2171 37.8985 34.9589L38.7135 35.4294L32.9526 38.7554C32.7894 38.8496 32.6701 39.0049 32.6213 39.187C32.5725 39.3691 32.598 39.5632 32.6924 39.7265L33.6476 41.381C34.344 42.587 35.7007 43.1467 37.0235 42.773L44.3498 40.7046C45.3635 40.4185 46.2996 40.5354 47.2118 41.0619L54.8645 45.4804C55.0987 45.6154 55.2297 45.8116 55.2649 46.0795C55.3002 46.3479 55.2244 46.5713 55.0333 46.7625L55.0338 46.7628ZM56.5273 45.3316C56.3444 44.8793 56.0187 44.5048 55.5758 44.2492L47.9232 39.8308C46.6785 39.1123 45.3466 38.9461 43.964 39.3366L36.6377 41.4051C35.9515 41.5987 35.2449 41.3035 34.8794 40.6704L34.2798 39.6317L42.3731 34.9592C43.6579 34.2171 45.0364 34.0356 46.4775 34.4218L53.551 36.2319L58.0915 44.0964L56.5274 45.3317L56.5273 45.3316ZM59.9612 44.4909L53.4741 33.2551L57.9168 30.6901L64.4039 41.926L59.9612 44.4909Z" fill="#182045"/>
</svg>
