<svg width="65" height="64" viewBox="0 0 65 64" fill="none" xmlns="http://www.w3.org/2000/svg">
<g clip-path="url(#clip0_422_8413)">
<path d="M25.8336 9.33325C16.26 9.33325 8.5 17.0669 8.5 26.6669C8.5 26.6669 8.4984 26.6509 8.5 26.9165C3.7432 29.3165 0.5 34.1325 0.5 39.9997C0.5 47.9997 7.0664 54.6669 15.1664 54.6669H51.1664C58.5296 54.6669 64.5 48.5333 64.5 41.3333C64.5 35.7333 61.0416 30.8837 56.1664 28.7493C56.356 28.2165 56.5 27.4669 56.5 26.6669C56.5 21.3333 52.3216 17.3333 47.1664 17.3333C45.0384 17.3333 43.0704 17.8333 41.5 19.1669C38.7184 13.2997 32.748 9.33325 25.8336 9.33325ZM32.5 22.6669L43.1664 35.9997H37.8336V49.3325H27.1664V36.0005H21.8336L32.5 22.6669Z" fill="#182045" fill-opacity="0.4"/>
</g>
<defs>
<clipPath id="clip0_422_8413">
<rect width="64" height="64" fill="white" transform="translate(0.5)"/>
</clipPath>
</defs>
</svg>
