<svg width="185" height="103" viewBox="0 0 185 103" fill="none" xmlns="http://www.w3.org/2000/svg">
<path d="M35.8976 60.1558C41.1941 58.4475 46.4647 55.3561 51.1398 51.2156C55.5766 47.286 59.4298 42.7373 63.156 38.3385C66.5278 34.3579 70.0145 30.242 73.8606 26.694C83.0806 18.1888 93.6812 14.6771 102.217 17.3001C106.717 18.6829 115.094 23.293 120.638 38.629C121.437 40.8387 122.18 43.0058 122.898 45.1017C125.369 52.308 127.704 59.1145 131.783 66.2293C138.069 77.1934 147.767 86.1217 161.349 93.4244L153.046 100.675L184.097 102.292L163.586 78.9237L163.052 89.7055C150.281 82.7963 141.182 74.421 135.322 64.2C131.436 57.4229 129.163 50.7952 126.757 43.7782C126.033 41.6666 125.284 39.483 124.474 37.2419C121.836 29.9439 115.592 17.1425 103.415 13.4004C93.476 10.3462 81.3934 14.1948 71.0944 23.6955C67.064 27.4138 63.4948 31.6269 60.0433 35.7015C56.4098 39.9908 52.653 44.426 48.4351 48.1613C41.1878 54.5798 29.8869 60.1037 19.9043 56.3575C10.5059 52.8308 5.64136 42.1869 4.98957 33.2026C4.64292 28.4208 4.24965 23.0012 10.5178 3.25578C10.8585 2.18213 10.2646 1.03545 9.19081 0.694368C8.11704 0.353283 6.97086 0.948719 6.62965 2.02151C3.5803 11.627 0.124211 22.5142 0.920921 33.4977C1.33122 39.1528 3.11364 44.8046 5.9397 49.4127C9.09923 54.5638 13.4324 58.2863 18.4716 60.1768C23.7213 62.1469 29.7472 62.1396 35.8976 60.1558Z" fill="#C79B07" fill-opacity="0.12"/>
</svg>
