<svg width="132" height="169" viewBox="0 0 132 169" fill="none" xmlns="http://www.w3.org/2000/svg">
<path d="M68.2365 30.4067C68.994 35.9201 71.1177 41.6494 74.3786 46.9755C77.4733 52.0302 81.2795 56.6184 84.9602 61.0552C88.2911 65.0701 91.7351 69.2218 94.5572 73.6282C101.322 84.1914 102.929 95.2423 98.8567 103.189C96.7096 107.379 90.7078 114.822 74.6395 117.604C72.3243 118.005 70.0608 118.358 67.8716 118.7C60.3447 119.874 53.2351 120.985 45.5175 123.759C33.6244 128.035 23.1401 136.026 13.5786 148.124L7.88832 138.683L0.876115 168.975L27.4661 152.858L16.9431 150.45C25.9756 139.081 35.8107 131.584 46.8978 127.598C54.2492 124.955 61.1719 123.874 68.5012 122.73C70.7067 122.386 72.9875 122.03 75.3357 121.623C82.9821 120.3 96.6769 116.387 102.487 105.05C107.23 95.7963 105.549 83.2273 97.9926 71.428C95.035 66.8103 91.5096 62.5605 88.1001 58.4507C84.511 54.1242 80.7997 49.6508 77.8581 44.8456C72.8033 36.5891 69.3371 24.4974 74.7684 15.322C79.8817 6.68365 91.2114 3.75192 100.171 4.67853C104.94 5.17195 110.345 5.73084 128.693 15.3497C129.691 15.8726 130.924 15.488 131.447 14.4902C131.97 13.4925 131.584 12.26 130.587 11.7367C121.662 7.05736 111.545 1.75377 100.591 0.620847C94.9513 0.037626 89.0751 0.806031 84.0444 2.78426C78.4209 4.99605 73.9991 8.61284 71.2579 13.2446C68.4016 18.0698 67.3568 24.0044 68.2365 30.4067Z" fill="#C79B07" fill-opacity="0.12"/>
</svg>
