<svg width="40" height="40" viewBox="0 0 40 40" fill="none" xmlns="http://www.w3.org/2000/svg">
<rect width="40" height="40" rx="20" fill="white"/>
<path d="M27.3764 15.3365C26.7988 14.65 25.7325 14.3699 23.6961 14.3699H16.3038C14.2207 14.3699 13.1364 14.6681 12.561 15.399C12 16.1117 12 17.1617 12 18.615V21.3851C12 24.2006 12.6656 25.6301 16.3038 25.6301H23.6961C25.4621 25.6301 26.4407 25.383 27.0738 24.7771C27.723 24.1558 28 23.1413 28 21.3851V18.615C28 17.0824 27.9566 16.0261 27.3764 15.3365ZM22.2721 20.3825L18.9153 22.1369C18.8402 22.1761 18.7581 22.1955 18.6762 22.1955C18.5834 22.1955 18.4908 22.1706 18.4088 22.1209C18.2543 22.0273 18.1601 21.8599 18.1601 21.6794V18.1819C18.1601 18.0017 18.2541 17.8345 18.4082 17.7408C18.5624 17.6472 18.7541 17.6408 18.9141 17.7239L22.2709 19.467C22.4417 19.5556 22.5489 19.7319 22.5492 19.9243C22.5494 20.1168 22.4426 20.2934 22.2721 20.3825Z" fill="#C79B07"/>
</svg>
